<?xml version="1.0"?>
<svg width="586" height="268" xmlns="http://www.w3.org/2000/svg" version="1.1">
 <polygon points="4,265 4,4 583,4 583,265 4,265" stroke="#ffffff" fill="#ffffff"/>
 <polygon points="24,256 39,256 80,256 140,256 213,256 293,256 373,256 446,256 506,256 547,256 562,256 564,256 566,255 567,255 569,254 570,252 572,251 573,249 573,248 574,246 574,244 574,238 574,221 574,196 574,167 574,134 574,101 574,72 574,47 574,30 574,24 574,22 573,20 573,19 572,17 570,16 569,14 567,13 566,13 564,12 562,12 547,12 506,12 446,12 373,12 293,12 213,12 140,12 80,12 39,12 24,12 22,12 20,13 19,13 17,14 16,16 14,17 13,19 13,20 12,22 12,24 12,30 12,47 12,72 12,101 12,134 12,167 12,196 12,221 12,238 12,244 12,246 13,248 13,249 14,251 16,252 17,254 19,255 20,255 22,256 24,256" stroke="#000000" fill="#FFFFCC"/>
 <text x="271" y="28" fill="#000000" font-family="Arial" font-size="12">user.js</text>
 <polygon points="566,90 481,90 478,93 478,116 563,116 566,113 566,90" stroke="#bebebe" fill="#ffffff"/>
 <polyline points="563,93 478,93" stroke="#bebebe" fill="none"/>
 <polyline points="563,93 563,116" stroke="#bebebe" fill="none"/>
 <polyline points="563,93 566,90" stroke="#bebebe" fill="none"/>
 <text x="486" y="106" fill="#000000" font-family="Arial" font-size="12">MPromise</text>
 <polygon points="403,46 257,46 257,72 403,72 403,46" stroke="#bebebe" fill="#ffffff"/>
 <text x="265" y="62" fill="#000000" font-family="Arial" font-size="12">createDummyUser</text>
 <polyline points="387,72 395,74 404,76 413,78 421,80 430,82 439,84 448,86 457,88 465,90 473,92" stroke="#0000cd" fill="none"/>
 <polygon points="473,90 478,93 473,94 473,90" stroke="#0000cd" fill="#0000cd"/>
 <polygon points="391,90 270,90 270,116 391,116 391,90" stroke="#bebebe" fill="#ffffff"/>
 <text x="278" y="106" fill="#000000" font-family="Arial" font-size="12">getPidPromise</text>
 <polyline points="391,103 399,103 407,103 415,103 424,103 432,103 441,103 449,103 457,103 465,103 473,103" stroke="#0000cd" fill="none"/>
 <polygon points="473,101 478,103 473,105 473,101" stroke="#0000cd" fill="#0000cd"/>
 <polygon points="182,90 21,90 21,116 182,116 182,90" stroke="#bebebe" fill="#ffffff"/>
 <text x="29" y="106" fill="#000000" font-family="Arial" font-size="12">getPidForParticipant</text>
 <polyline points="182,103 190,103 198,103 207,103 215,103 224,103 232,103 240,103 248,103 256,103 264,103" stroke="#0000cd" fill="none"/>
 <polygon points="264,101 269,103 264,105 264,101" stroke="#0000cd" fill="#0000cd"/>
 <polygon points="397,222 264,222 264,248 397,248 397,222" stroke="#bebebe" fill="#ffffff"/>
 <text x="272" y="238" fill="#000000" font-family="Arial" font-size="12">getFacebookInfo</text>
 <polygon points="137,178 66,178 66,204 137,204 137,178" stroke="#bebebe" fill="#ffffff"/>
 <text x="74" y="194" fill="#000000" font-family="Arial" font-size="12">getUser</text>
 <polyline points="137,198 147,200 158,202 170,204 182,206 195,209 207,211 220,214 233,216 246,219 258,221" stroke="#0000cd" fill="none"/>
 <polygon points="259,220 263,222 258,223 259,220" stroke="#0000cd" fill="#0000cd"/>
 <polygon points="384,178 277,178 277,204 384,204 384,178" stroke="#bebebe" fill="#ffffff"/>
 <text x="285" y="194" fill="#000000" font-family="Arial" font-size="12">getTwitterInfo</text>
 <polyline points="137,191 148,191 161,191 174,191 188,191 202,191 216,191 230,191 244,191 258,191 271,191" stroke="#0000cd" fill="none"/>
 <polygon points="271,189 276,191 271,193 271,189" stroke="#0000cd" fill="#0000cd"/>
 <polygon points="406,134 254,134 254,160 406,160 406,134" stroke="#bebebe" fill="#ffffff"/>
 <text x="262" y="150" fill="#000000" font-family="Arial" font-size="12">getUserInfoForUid2</text>
 <polyline points="137,184 147,182 158,180 169,178 181,176 194,173 206,171 219,168 231,166 244,163 256,161" stroke="#0000cd" fill="none"/>
 <polygon points="256,159 262,160 257,163 256,159" stroke="#0000cd" fill="#0000cd"/>
 <polyline points="387,134 395,132 404,130 413,128 421,126 430,124 439,122 448,120 457,118 465,116 473,114" stroke="#0000cd" fill="none"/>
 <polygon points="473,112 478,113 473,116 473,112" stroke="#0000cd" fill="#0000cd"/>
</svg>
