<?xml version="1.0"?>
<svg width="462" height="492" xmlns="http://www.w3.org/2000/svg" version="1.1">
 <polygon points="4,489 4,4 459,4 459,489 4,489" stroke="#ffffff" fill="#ffffff"/>
 <polygon points="24,480 36,480 67,480 113,480 170,480 231,480 292,480 349,480 395,480 426,480 438,480 440,480 442,479 443,479 445,478 446,476 448,475 449,473 449,472 450,470 450,468 450,456 450,422 450,372 450,312 450,246 450,180 450,120 450,70 450,36 450,24 450,22 449,20 449,19 448,17 446,16 445,14 443,13 442,13 440,12 438,12 426,12 395,12 349,12 292,12 231,12 170,12 113,12 67,12 36,12 24,12 22,12 20,13 19,13 17,14 16,16 14,17 13,19 13,20 12,22 12,24 12,36 12,70 12,120 12,180 12,246 12,312 12,372 12,422 12,456 12,468 12,470 13,472 13,473 14,475 16,476 17,478 19,479 20,479 22,480 24,480" stroke="#000000" fill="#FFFFCC"/>
 <text x="167" y="28" fill="#000000" font-family="Arial" font-size="12">Directory Structure</text>
 <polygon points="148,460 156,460 177,460 209,460 247,460 289,460 331,460 369,460 401,460 422,460 430,460 432,460 434,459 435,459 437,458 438,456 440,455 441,453 441,452 442,450 442,448 442,438 442,411 442,371 442,323 442,270 442,217 442,169 442,129 442,102 442,92 442,90 441,88 441,87 440,85 438,84 437,82 435,81 434,81 432,80 430,80 422,80 401,80 369,80 331,80 289,80 247,80 209,80 177,80 156,80 148,80 146,80 144,81 143,81 141,82 140,84 138,85 137,87 137,88 136,90 136,92 136,102 136,129 136,169 136,217 136,270 136,323 136,371 136,411 136,438 136,448 136,450 137,452 137,453 138,455 140,456 141,458 143,459 144,459 146,460 148,460" stroke="#000000" fill="#F0FFF0"/>
 <text x="226" y="96" fill="#000000" font-family="Arial" font-size="12">client-participation</text>
 <polygon points="156,442 163,442 184,442 213,442 250,442 289,442 328,442 365,442 394,442 415,442 422,442 424,442 426,441 427,441 429,440 430,438 432,437 433,435 433,434 434,432 434,430 434,421 434,398 434,364 434,323 434,278 434,233 434,192 434,158 434,135 434,126 434,124 433,122 433,121 432,119 430,118 429,116 427,115 426,115 424,114 422,114 415,114 394,114 365,114 328,114 289,114 250,114 213,114 184,114 163,114 156,114 154,114 152,115 151,115 149,116 148,118 146,119 145,121 145,122 144,124 144,126 144,135 144,158 144,192 144,233 144,278 144,323 144,364 144,398 144,421 144,430 144,432 145,434 145,435 146,437 148,438 149,440 151,441 152,441 154,442 156,442" stroke="#000000" fill="#DFFFFF"/>
 <text x="284" y="130" fill="#000000" font-family="Arial" font-size="12">js</text>
 <polygon points="164,434 171,434 190,434 218,434 252,434 289,434 326,434 360,434 388,434 407,434 414,434 416,434 418,433 419,433 421,432 422,430 424,429 425,427 425,426 426,424 426,422 426,415 426,395 426,365 426,330 426,291 426,252 426,217 426,187 426,167 426,160 426,158 425,156 425,155 424,153 422,152 421,150 419,149 418,149 416,148 414,148 407,148 388,148 360,148 326,148 289,148 252,148 218,148 190,148 171,148 164,148 162,148 160,149 159,149 157,150 156,152 154,153 153,155 153,156 152,158 152,160 152,167 152,187 152,217 152,252 152,291 152,330 152,365 152,395 152,415 152,422 152,424 153,426 153,427 154,429 156,430 157,432 159,433 160,433 162,434 164,434" stroke="#000000" fill="#FFE5E2"/>
 <text x="268" y="164" fill="#000000" font-family="Arial" font-size="12">stores</text>
 <polygon points="172,426 179,426 196,426 223,426 254,426 289,426 324,426 355,426 382,426 399,426 406,426 408,426 410,425 411,425 413,424 414,422 416,421 417,419 417,418 418,416 418,414 418,408 418,391 418,366 418,337 418,304 418,271 418,242 418,217 418,200 418,194 418,192 417,190 417,189 416,187 414,186 413,184 411,183 410,183 408,182 406,182 399,182 382,182 355,182 324,182 289,182 254,182 223,182 196,182 179,182 172,182 170,182 168,183 167,183 165,184 164,186 162,187 161,189 161,190 160,192 160,194 160,200 160,217 160,242 160,271 160,304 160,337 160,366 160,391 160,408 160,414 160,416 161,418 161,419 162,421 164,422 165,424 167,425 168,425 170,426 172,426" stroke="#000000" fill="#FFFFCC"/>
 <text x="265" y="198" fill="#000000" font-family="Arial" font-size="12">polis.js</text>
 <polygon points="377,392 357,392 357,418 377,418 377,392" stroke="#bebebe" fill="#ffffff"/>
 <text x="365" y="408" fill="#000000" font-family="Arial" font-size="12">f</text>
 <polygon points="215,282 192,282 190,285 190,308 212,308 215,305 215,282" stroke="#bebebe" fill="#ffffff"/>
 <polyline points="212,285 190,285" stroke="#bebebe" fill="none"/>
 <polyline points="212,285 212,308" stroke="#bebebe" fill="none"/>
 <polyline points="212,285 215,282" stroke="#bebebe" fill="none"/>
 <text x="198" y="298" fill="#000000" font-family="Arial" font-size="12">g</text>
 <polygon points="410,216 327,216 325,219 325,242 407,242 410,239 410,216" stroke="#bebebe" fill="#ffffff"/>
 <polyline points="407,219 325,219" stroke="#bebebe" fill="none"/>
 <polyline points="407,219 407,242" stroke="#bebebe" fill="none"/>
 <polyline points="407,219 410,216" stroke="#bebebe" fill="none"/>
 <text x="333" y="232" fill="#000000" font-family="Arial" font-size="12">deepcopy</text>
 <polygon points="236,326 169,326 169,352 236,352 236,326" stroke="#bebebe" fill="#ffffff"/>
 <text x="177" y="342" fill="#000000" font-family="Arial" font-size="12">exports</text>
 <polyline points="236,326 238,325 239,324 241,323 242,322 244,322 246,321 247,320 249,319 250,318 252,317 262,310 270,303 277,297 283,291 288,284 293,278 299,272 306,265 314,258 324,251 325,250 326,250 327,249 328,249 329,248 330,247 331,247 332,246 333,246 334,245" stroke="#0000cd" fill="none"/>
 <polygon points="333,243 338,242 335,246 333,243" stroke="#0000cd" fill="#0000cd"/>
 <polyline points="236,350 238,351 239,351 241,352 242,352 244,353 246,354 247,354 249,355 250,355 252,356 263,360 275,365 286,370 297,374 308,379 318,384 328,388 337,392 345,396 352,399" stroke="#0000cd" fill="none"/>
 <polygon points="353,397 357,401 352,400 353,397" stroke="#0000cd" fill="#0000cd"/>
 <polygon points="404,348 333,348 330,351 330,374 401,374 404,371 404,348" stroke="#bebebe" fill="#ffffff"/>
 <polyline points="401,351 330,351" stroke="#bebebe" fill="none"/>
 <polyline points="401,351 401,374" stroke="#bebebe" fill="none"/>
 <polyline points="401,351 404,348" stroke="#bebebe" fill="none"/>
 <text x="338" y="364" fill="#000000" font-family="Arial" font-size="12">polisGet</text>
 <polyline points="236,343 244,344 252,345 261,347 270,348 279,349 289,351 298,352 307,353 316,354 325,355" stroke="#0000cd" fill="none"/>
 <polygon points="325,354 330,356 325,357 325,354" stroke="#0000cd" fill="#0000cd"/>
 <polygon points="408,304 329,304 327,307 327,330 405,330 408,327 408,304" stroke="#bebebe" fill="#ffffff"/>
 <polyline points="405,307 327,307" stroke="#bebebe" fill="none"/>
 <polyline points="405,307 405,330" stroke="#bebebe" fill="none"/>
 <polyline points="405,307 408,304" stroke="#bebebe" fill="none"/>
 <text x="335" y="320" fill="#000000" font-family="Arial" font-size="12">polisPost</text>
 <polyline points="236,335 243,334 251,333 260,331 269,330 277,329 286,328 295,327 304,325 313,324 321,323" stroke="#0000cd" fill="none"/>
 <polygon points="321,321 326,322 322,325 321,321" stroke="#0000cd" fill="#0000cd"/>
 <polygon points="403,260 334,260 331,263 331,286 400,286 403,283 403,260" stroke="#bebebe" fill="#ffffff"/>
 <polyline points="400,263 331,263" stroke="#bebebe" fill="none"/>
 <polyline points="400,263 400,286" stroke="#bebebe" fill="none"/>
 <polyline points="400,263 403,260" stroke="#bebebe" fill="none"/>
 <text x="339" y="276" fill="#000000" font-family="Arial" font-size="12">polisPut</text>
 <polyline points="235,326 243,323 252,319 262,315 272,311 282,307 292,303 301,299 311,295 320,291 329,288" stroke="#0000cd" fill="none"/>
 <polygon points="329,286 334,286 330,290 329,286" stroke="#0000cd" fill="#0000cd"/>
 <polygon points="252,46 155,46 152,49 152,72 249,72 252,69 252,46" stroke="#bebebe" fill="#ffffff"/>
 <polyline points="249,49 152,49" stroke="#bebebe" fill="none"/>
 <polyline points="249,49 249,72" stroke="#bebebe" fill="none"/>
 <polyline points="249,49 252,46" stroke="#bebebe" fill="none"/>
 <text x="160" y="62" fill="#000000" font-family="Arial" font-size="12">client-admin</text>
 <polygon points="72,46 31,46 29,49 29,72 69,72 72,69 72,46" stroke="#bebebe" fill="#ffffff"/>
 <polyline points="69,49 29,49" stroke="#bebebe" fill="none"/>
 <polyline points="69,49 69,72" stroke="#bebebe" fill="none"/>
 <polyline points="69,49 72,46" stroke="#bebebe" fill="none"/>
 <text x="37" y="62" fill="#000000" font-family="Arial" font-size="12">e2e</text>
 <polyline points="72,59 78,59 85,59 92,59 99,59 107,59 115,59 123,59 131,59 139,59 147,59" stroke="#0000cd" fill="none"/>
 <polygon points="147,57 152,59 147,61 147,57" stroke="#0000cd" fill="#0000cd"/>
 <polygon points="80,364 23,364 21,367 21,390 77,390 80,387 80,364" stroke="#bebebe" fill="#ffffff"/>
 <polyline points="77,367 21,367" stroke="#bebebe" fill="none"/>
 <polyline points="77,367 77,390" stroke="#bebebe" fill="none"/>
 <polyline points="77,367 80,364" stroke="#bebebe" fill="none"/>
 <text x="29" y="380" fill="#000000" font-family="Arial" font-size="12">server</text>
 <polyline points="59,390 63,397 69,404 75,412 81,421 89,429 97,438 106,445 115,453 125,459 136,464 150,469 162,473 173,475 183,476 193,476 203,475 214,473 225,471 238,467 252,464 264,461 275,456 287,452 298,446 309,441 320,435 329,430 338,425 346,420 353,415" stroke="#0000cd" fill="none"/>
 <polygon points="352,413 357,412 354,416 352,413" stroke="#0000cd" fill="#0000cd"/>
 <polyline points="67,364 72,360 78,355 84,351 91,346 98,341 105,335 113,330 120,326 128,321 136,317 141,315 146,312 151,310 156,308 161,307 166,305 171,303 176,302 180,300 184,299" stroke="#0000cd" fill="none"/>
 <polygon points="184,298 189,298 185,301 184,298" stroke="#0000cd" fill="#0000cd"/>
</svg>
